<svg xmlns="http://www.w3.org/2000/svg" xmlns:xlink="http://www.w3.org/1999/xlink" version="1.1" id="Layer_1" x="0px" y="0px" width="100px" height="100px" viewBox="0 0 100 100" enable-background="new 0 0 100 100" xml:space="preserve">
<g id="XMLID_66_">
	<g>
		<g id="XMLID_9_">
			<g>
				<path d="M63.515,65.159h-2.81c-0.188,0-0.396,0-0.584-0.037c-1.207-0.021-2.395-0.228-3.508-0.567      c-2.902-0.886-5.43-2.677-7.202-5.052c-0.472-0.604-0.867-1.226-1.206-1.885c-0.32-0.604-0.604-1.228-0.811-1.886      c-0.546-1.472-0.83-3.055-0.83-4.714s0.284-3.244,0.83-4.713h5.146c0.358,0,0.697,0.036,1.037,0.113      c-0.848,1.319-1.357,2.902-1.357,4.6c0,1.698,0.51,3.281,1.357,4.599c0.377,0.567,0.812,1.095,1.319,1.565      c0.511,0.49,1.075,0.906,1.716,1.264c1.206,0.661,2.602,1.057,4.092,1.057h3.111h2.317h2.188h5.581      c4.677,0,8.484-3.808,8.484-8.484s-3.808-8.483-8.484-8.483h-5.581c-1.205-2.225-2.846-4.148-4.807-5.657h10.388      c7.805,0,14.141,6.333,14.141,14.14c0,7.808-6.336,14.141-14.141,14.141H63.515z"/>
				<path d="M58.348,44.854c-0.528-0.491-1.093-0.924-1.734-1.262c-1.205-0.682-2.602-1.057-4.072-1.057h-3.13h-2.3h-2.169h-5.6      c-4.674,0-8.483,3.807-8.483,8.483s3.81,8.484,8.483,8.484h5.6c1.189,2.206,2.828,4.128,4.789,5.656H39.343      c-7.805,0-14.139-6.333-14.139-14.141c0-7.807,6.334-14.14,14.139-14.14h10.389h2.81c0.208,0,0.396,0,0.586,0.037      c1.205,0.019,2.374,0.228,3.486,0.567c2.923,0.886,5.448,2.676,7.203,5.052c0.489,0.603,0.886,1.226,1.225,1.885      c0.319,0.604,0.604,1.226,0.812,1.886c0.547,1.469,0.828,3.054,0.828,4.713s-0.281,3.242-0.828,4.714h-5.147      c-0.356,0-0.717-0.037-1.037-0.115c0.867-1.317,1.357-2.9,1.357-4.599c0-1.697-0.49-3.28-1.357-4.6      C59.291,45.852,58.858,45.325,58.348,44.854z"/>
			</g>
		</g>
	</g>
</g>
</svg>